<?xml version="1.0" encoding="UTF-8" standalone="no"?>
<!DOCTYPE svg PUBLIC "-//W3C//DTD SVG 1.1//EN" "http://www.w3.org/Graphics/SVG/1.1/DTD/svg11.dtd">
<svg width="100%" height="100%" viewBox="0 0 4920 3264" version="1.1" xmlns="http://www.w3.org/2000/svg" xmlns:xlink="http://www.w3.org/1999/xlink" xml:space="preserve" xmlns:serif="http://www.serif.com/" style="fill-rule:evenodd;clip-rule:evenodd;stroke-miterlimit:2;">
    <g>
        <rect x="0" y="0" width="4920" height="3264" style="fill:white;fill-rule:nonzero;"/>
        <path d="M372.384,0L372.359,3263.75" style="fill:none;stroke:black;stroke-width:1px;"/>
        <path d="M735.767,0L735.74,3263.75" style="fill:none;stroke:black;stroke-width:1px;"/>
        <path d="M1099.15,0L1099.12,3263.75" style="fill:none;stroke:black;stroke-width:1px;"/>
        <path d="M1462.53,0L1462.5,3263.75" style="fill:none;stroke:black;stroke-width:1px;"/>
        <path d="M1825.91,0L1825.89,3263.75" style="fill:none;stroke:black;stroke-width:1px;"/>
        <path d="M2189.29,0L2189.27,3263.75" style="fill:none;stroke:black;stroke-width:1px;"/>
        <path d="M2552.68,0L2552.65,3263.75" style="fill:none;stroke:black;stroke-width:1px;"/>
        <path d="M2916.06,0L2916.03,3263.75" style="fill:none;stroke:black;stroke-width:1px;"/>
        <path d="M3279.44,0L3279.41,3263.75" style="fill:none;stroke:black;stroke-width:1px;"/>
        <path d="M3642.82,0L3642.8,3263.75" style="fill:none;stroke:black;stroke-width:1px;"/>
        <path d="M4006.2,0L4006.18,3263.75" style="fill:none;stroke:black;stroke-width:1px;"/>
        <path d="M4369.59,0L4369.56,3263.75" style="fill:none;stroke:black;stroke-width:1px;"/>
        <path d="M4732.97,0L4732.94,3263.75" style="fill:none;stroke:black;stroke-width:1px;"/>
        <path d="M190.694,0L190.668,3263.75" style="fill:none;stroke:black;stroke-width:1px;"/>
        <path d="M554.076,0L554.05,3263.75" style="fill:none;stroke:black;stroke-width:1px;"/>
        <path d="M917.458,0L917.432,3263.75" style="fill:none;stroke:black;stroke-width:1px;"/>
        <path d="M1280.84,0L1280.81,3263.75" style="fill:none;stroke:black;stroke-width:1px;"/>
        <path d="M1644.22,0L1644.2,3263.75" style="fill:none;stroke:black;stroke-width:1px;"/>
        <path d="M2007.6,0L2007.58,3263.75" style="fill:none;stroke:black;stroke-width:1px;"/>
        <path d="M2370.98,0L2370.96,3263.75" style="fill:none;stroke:black;stroke-width:1px;"/>
        <path d="M2734.37,0L2734.34,3263.75" style="fill:none;stroke:black;stroke-width:1px;"/>
        <path d="M3097.75,0L3097.72,3263.75" style="fill:none;stroke:black;stroke-width:1px;"/>
        <path d="M3461.13,0L3461.1,3263.75" style="fill:none;stroke:black;stroke-width:1px;"/>
        <path d="M3824.51,0L3824.49,3263.75" style="fill:none;stroke:black;stroke-width:1px;"/>
        <path d="M4187.89,0L4187.87,3263.75" style="fill:none;stroke:black;stroke-width:1px;"/>
        <path d="M4551.28,0L4551.25,3263.75" style="fill:none;stroke:black;stroke-width:1px;"/>
        <path d="M8.99,2907.04L4914.63,2907.07" style="fill:none;stroke:black;stroke-width:1px;"/>
        <path d="M8.99,2543.66L4914.63,2543.69" style="fill:none;stroke:black;stroke-width:1px;"/>
        <path d="M8.99,2180.28L4914.63,2180.3" style="fill:none;stroke:black;stroke-width:1px;"/>
        <path d="M8.99,1816.9L4914.63,1816.92" style="fill:none;stroke:black;stroke-width:1px;"/>
        <path d="M8.99,1453.51L4914.63,1453.54" style="fill:none;stroke:black;stroke-width:1px;"/>
        <path d="M8.99,1090.13L4914.63,1090.16" style="fill:none;stroke:black;stroke-width:1px;"/>
        <path d="M8.99,726.751L4914.63,726.777" style="fill:none;stroke:black;stroke-width:1px;"/>
        <path d="M8.99,363.37L4914.63,363.396" style="fill:none;stroke:black;stroke-width:1px;"/>
        <path d="M8.99,3088.73L4914.63,3088.76" style="fill:none;stroke:black;stroke-width:1px;"/>
        <path d="M8.99,2725.35L4914.63,2725.38" style="fill:none;stroke:black;stroke-width:1px;"/>
        <path d="M8.99,2361.97L4914.63,2362" style="fill:none;stroke:black;stroke-width:1px;"/>
        <path d="M8.99,1998.59L4914.63,1998.61" style="fill:none;stroke:black;stroke-width:1px;"/>
        <path d="M8.99,1635.21L4914.63,1635.23" style="fill:none;stroke:black;stroke-width:1px;"/>
        <path d="M8.99,1271.82L4914.63,1271.85" style="fill:none;stroke:black;stroke-width:1px;"/>
        <path d="M8.99,908.443L4914.63,908.469" style="fill:none;stroke:black;stroke-width:1px;"/>
        <path d="M8.99,545.061L4914.63,545.087" style="fill:none;stroke:black;stroke-width:1px;"/>
        <path d="M8.99,181.679L4914.63,181.705" style="fill:none;stroke:black;stroke-width:1px;"/>
    </g>
</svg>
